<svg xmlns="http://www.w3.org/2000/svg" width="3692" height="926" viewBox="0 0 3692 926" version="1.1"><path d="M 886 0.618 C 823.301 5.926, 767.476 21.040, 714.589 47.024 C 682.017 63.027, 645.691 86.723, 620.542 108.372 L 614.585 113.500 536.542 114.022 C 459.571 114.538, 458.411 114.575, 452 116.736 C 427.099 125.130, 411 146.965, 411 172.342 C 411 183.439, 412.805 190.923, 417.768 200.408 C 424.402 213.084, 438.267 224.532, 452.500 229.083 C 455.365 229.999, 469.271 230.543, 501.500 231 C 551.158 231.705, 551.263 231.718, 563.516 238.504 C 571.866 243.129, 578.134 248.917, 583.319 256.792 C 590.029 266.982, 592.191 273.682, 592.742 286 C 593.286 298.177, 591.700 305.921, 586.699 315.500 C 582.272 323.980, 570.229 335.836, 562 339.814 C 548.709 346.240, 553.181 345.998, 447.040 346.017 C 339.193 346.037, 342.880 345.819, 328.274 353.018 C 314.227 359.942, 303.192 373.296, 298.596 388.932 C 296.460 396.200, 296.469 412.847, 298.612 420.068 C 304.146 438.708, 317.688 453.080, 336.023 459.771 L 343.500 462.500 455.500 463 L 567.500 463.500 574.120 466.079 C 592.456 473.221, 604.444 485.681, 610.605 504 C 613.356 512.178, 613.202 528.269, 610.285 537.542 C 604.889 554.691, 590.380 569.395, 573.072 575.255 C 566.504 577.478, 566.434 577.480, 470.500 577.997 C 374.527 578.515, 374.498 578.516, 367.928 580.743 C 351.330 586.369, 336.763 600.776, 330.987 617.277 C 327.978 625.876, 327.273 640.270, 329.416 649.387 C 334.192 669.708, 350.139 686.330, 371.008 692.740 C 376.028 694.282, 389.988 694.473, 533.500 694.964 L 690.500 695.500 696.704 697.933 C 714.752 705.010, 728.663 720.708, 733.099 739 C 734.967 746.703, 734.724 760.237, 732.587 767.500 C 727.096 786.168, 712.693 800.993, 694 807.217 C 687.839 809.269, 685.076 809.415, 641 810.018 C 590.511 810.708, 591.492 810.599, 579.500 816.838 C 565.473 824.135, 553.145 840.352, 549.960 855.695 C 548.082 864.740, 549.192 880.088, 552.313 888.225 C 559.258 906.335, 574.407 919.934, 592.780 924.553 C 598.414 925.969, 616.839 926.088, 771.780 925.711 C 892.761 925.417, 947.945 924.943, 956 924.130 C 1019.430 917.725, 1069.841 903.750, 1122.500 877.970 C 1205.610 837.284, 1274.949 772.304, 1320.947 692 C 1331.387 673.773, 1350 634.637, 1350 630.911 C 1350 630.368, 1305.201 630, 1239.175 630 L 1128.349 630 1123.270 636.250 C 1116.451 644.640, 1095.393 665.122, 1085.500 672.988 C 1015.414 728.714, 919.674 745.633, 834.330 717.375 C 794.414 704.158, 759.284 682.380, 728.952 652.048 C 704.355 627.452, 686.164 600.852, 672.458 569.443 C 657.384 534.896, 650.644 501.857, 650.644 462.500 C 650.644 430.086, 654.169 407.721, 663.962 378 C 677.224 337.751, 698.432 303.472, 728.952 272.952 C 743.246 258.657, 753.507 250.204, 770.065 239.078 C 865.853 174.718, 994.945 180.011, 1085.500 252.012 C 1095.393 259.878, 1116.451 280.360, 1123.270 288.750 L 1128.349 295 1239.175 295 C 1304.351 295, 1350 294.629, 1350 294.098 C 1350 290.362, 1331.172 250.715, 1320.985 233 C 1251.575 112.295, 1132.856 29.414, 995.944 6.082 C 970.178 1.691, 958.345 0.773, 924 0.502 C 905.575 0.356, 888.475 0.408, 886 0.618 M 223.381 114.953 C 204.668 117.865, 188.760 129.164, 179.549 146.087 C 176.087 152.449, 172.996 164.904, 173.017 172.410 C 173.042 180.974, 175.276 190.536, 179.136 198.599 C 183.620 207.965, 195.916 220.430, 205 224.817 C 217.022 230.624, 220.134 231, 256.161 231 C 275.884 231, 291.008 230.567, 294.201 229.910 C 314.734 225.686, 333.082 208.027, 338.415 187.356 C 340.420 179.584, 340.451 166.191, 338.482 158.460 C 333.432 138.630, 317.351 122.314, 296.955 116.325 C 292.570 115.038, 285.323 114.668, 260 114.440 C 242.675 114.284, 226.197 114.515, 223.381 114.953 M 895.564 240.076 C 822.799 247.028, 758.293 291.179, 724.461 357.186 C 682.604 438.848, 693.593 540.346, 751.836 610.048 C 808.423 677.770, 901.722 703.821, 986.510 675.574 C 1066.857 648.806, 1123.803 577.110, 1134.071 489.792 C 1135.701 475.929, 1134.775 436.223, 1132.538 424 C 1123.599 375.179, 1103.037 335.061, 1070 301.987 C 1037.325 269.274, 995.797 248.357, 950 241.544 C 936.836 239.585, 908.650 238.825, 895.564 240.076 M 1682 266.167 C 1643.825 269.762, 1605.805 284.673, 1574.533 308.313 C 1564.114 316.189, 1547.075 333.265, 1539.065 343.859 C 1510.154 382.093, 1497.443 425.474, 1500.125 476.750 C 1503.997 550.787, 1551.515 615.520, 1622.852 643.941 C 1668.402 662.088, 1720.650 663.890, 1767.500 648.928 C 1791.626 641.224, 1811.766 630.892, 1831.215 616.241 C 1841.619 608.403, 1860.370 590.545, 1859.809 589.007 C 1859.348 587.741, 1838.892 572.589, 1827.769 565.274 C 1815.924 557.485, 1807.708 554, 1801.190 554 C 1797.302 554, 1794.471 554.987, 1786.920 558.976 C 1753.652 576.548, 1744.316 580.480, 1728.275 583.673 C 1715.322 586.251, 1692.748 585.979, 1679 583.077 C 1629.304 572.591, 1592.286 534.770, 1583.490 485.496 C 1581.122 472.230, 1581.340 451.192, 1583.986 437.663 C 1593.896 386.995, 1631.808 349.194, 1681.385 340.548 C 1694.261 338.303, 1714.795 338.513, 1727.077 341.016 C 1743.783 344.420, 1756.327 349.582, 1777 361.558 C 1783.325 365.222, 1790.450 369.070, 1792.833 370.110 C 1805.484 375.628, 1817.184 370.066, 1859.424 338.456 L 1862.155 336.411 1855.328 329.027 C 1814.139 284.483, 1746.805 260.063, 1682 266.167 M 2116.367 266.527 C 2067.973 273.382, 2022.807 297.292, 1991.787 332.478 C 1940.389 390.779, 1928.706 476.113, 1962.467 546.636 C 1972.784 568.187, 1983.777 583.680, 2000.707 600.527 C 2048.625 648.212, 2118.903 668.610, 2188 654.887 C 2239.314 644.696, 2286.647 613.500, 2315.149 571.086 C 2337.232 538.226, 2347.963 502.551, 2347.963 462 C 2347.963 417.928, 2335.646 380.116, 2310.012 345.500 C 2279.614 304.449, 2234.618 277.316, 2180.500 267.400 C 2167.930 265.096, 2130.099 264.582, 2116.367 266.527 M 2430 462 L 2430 653 2469.996 653 L 2509.992 653 2510.246 526.527 L 2510.500 400.055 2593.500 518.240 C 2639.150 583.242, 2677.966 638.076, 2679.758 640.093 C 2683.766 644.604, 2694.625 650.394, 2702 651.953 C 2705.734 652.742, 2718.211 653.016, 2740.859 652.807 L 2774.217 652.500 2741.323 607.500 C 2655.560 490.173, 2644.075 473.818, 2570.688 364.500 C 2513.437 279.219, 2516.130 283.011, 2509.783 278.701 C 2499.194 271.510, 2495.968 271, 2461.032 271 L 2430 271 2430 462 M 2694 385.386 L 2694 499.773 2733.632 553.636 C 2755.430 583.261, 2773.430 607.688, 2773.632 607.917 C 2773.835 608.146, 2774 532.433, 2774 439.667 L 2774 271 2734 271 L 2694 271 2694 385.386 M 3005.693 271.711 C 3005.433 272.145, 2972.055 355.975, 2931.519 458 C 2890.984 560.025, 2856.964 645.642, 2855.920 648.261 L 2854.021 653.021 2897.156 652.761 L 2940.291 652.500 3000.064 501.665 C 3032.939 418.705, 3059.987 350.679, 3060.170 350.496 C 3060.353 350.314, 3087.007 418.302, 3119.402 501.582 L 3178.300 653 3221.150 653 C 3244.718 653, 3264 652.804, 3264 652.565 C 3264 651.105, 3124.354 296.611, 3122.253 292.739 C 3118.631 286.062, 3110.215 278.471, 3102.259 274.701 L 3095.500 271.500 3050.833 271.211 C 3026.266 271.053, 3005.953 271.278, 3005.693 271.711 M 3343 461.949 L 3343 653 3382.996 653 L 3422.992 653 3423.246 526.651 L 3423.500 400.302 3507.455 519.749 C 3557.514 590.969, 3593.028 640.580, 3595.418 642.626 C 3600.276 646.784, 3608.164 650.630, 3614.678 652.016 C 3617.590 652.636, 3632.881 652.935, 3653.289 652.771 L 3687.078 652.500 3668.399 627 C 3573.369 497.270, 3560.810 479.434, 3483.218 364 C 3454.937 321.925, 3429.763 285.404, 3427.277 282.842 C 3424.521 280.003, 3419.973 276.879, 3415.628 274.842 L 3408.500 271.500 3375.750 271.199 L 3343 270.899 3343 461.949 M 3607 385.491 L 3607 499.982 3646.143 553.241 C 3667.672 582.533, 3685.672 606.928, 3686.143 607.450 C 3686.619 607.978, 3687 533.445, 3687 439.700 L 3687 271 3647 271 L 3607 271 3607 385.491 M 900.500 330.624 C 866.257 335.809, 841.841 346.970, 820.454 367.215 C 800.661 385.951, 787.312 410.859, 782.282 438.442 C 780.062 450.615, 780.062 475.385, 782.282 487.558 C 792.077 541.269, 831.428 581.311, 886.043 593.143 C 894.940 595.071, 899.558 595.415, 917 595.454 C 934.916 595.494, 938.809 595.207, 947.881 593.176 C 1004.495 580.500, 1042.971 541.268, 1052.501 486.500 C 1054.559 474.668, 1054.555 451.295, 1052.493 439.500 C 1049.152 420.397, 1042.852 404.483, 1032.419 388.792 C 1013.476 360.303, 983.624 340.752, 947.116 332.925 C 937.749 330.916, 908.200 329.458, 900.500 330.624 M 2126.500 339.474 C 2094.520 344.573, 2068.358 360.337, 2049.280 386 C 2028.458 414.010, 2020.396 456.269, 2028.959 492.520 C 2040.202 540.121, 2073.990 573.362, 2121.500 583.566 C 2131.500 585.713, 2156.301 586.012, 2167 584.113 C 2216.639 575.304, 2252.481 539.953, 2263.668 488.768 C 2266.247 476.969, 2266.225 446.937, 2263.629 435.040 C 2258.111 409.756, 2247.454 389.449, 2231.027 372.919 C 2221.185 363.015, 2212.859 356.895, 2201.349 351.106 C 2179.136 339.932, 2151.021 335.563, 2126.500 339.474 M 46.072 347.553 C 24.914 352.141, 7.027 369.185, 1.475 390.045 C -0.444 397.259, -0.390 411.699, 1.585 419.356 C 6.347 437.813, 20.416 452.975, 39.119 459.805 L 46.500 462.500 118.135 462.787 C 197.220 463.105, 197.743 463.071, 210.315 456.941 C 225.532 449.522, 237.274 435.310, 241.426 419.284 C 243.391 411.701, 243.440 397.243, 241.525 390.045 C 237.360 374.395, 224.946 359.200, 210.858 352.510 C 197.242 346.043, 197.025 346.028, 121 346.097 C 66.350 346.146, 51.200 346.441, 46.072 347.553 M 181.678 579.576 C 171.540 582.031, 163.190 586.845, 154.922 595 C 134.305 615.336, 131.349 645.465, 147.634 669.299 C 155.042 680.141, 166.417 688.284, 180 692.470 C 188.244 695.010, 213.897 695.686, 225.454 693.667 C 253.883 688.700, 274 665.076, 274 636.658 C 274 625.561, 272.195 618.077, 267.232 608.592 C 259.901 594.583, 245.690 583.620, 229.540 579.515 C 221.627 577.504, 190.070 577.544, 181.678 579.576 M 3639.251 715.516 C 3626.802 718.221, 3618.291 725.059, 3615.394 734.687 C 3611.240 748.489, 3617.122 760.909, 3630.113 765.769 C 3633.098 766.886, 3641.381 768.774, 3648.520 769.964 C 3667.485 773.126, 3672.200 775.633, 3672.200 782.552 C 3672.200 786.805, 3669.218 790.475, 3664.603 791.901 C 3654.342 795.073, 3645.694 793.959, 3633.718 787.922 C 3629.439 785.765, 3624.857 784, 3623.538 784 C 3622.034 784, 3619.155 785.868, 3615.820 789.006 L 3610.500 794.012 3614.491 797.571 C 3619.399 801.946, 3630.489 807.459, 3638.460 809.485 C 3645.483 811.270, 3657.744 811.454, 3665.201 809.885 C 3673.521 808.135, 3680.486 804.366, 3685.308 799.003 C 3690.660 793.050, 3692.371 787.569, 3691.835 778.094 C 3691.019 763.641, 3682.836 757.764, 3657.500 753.435 C 3649.250 752.025, 3640.925 750.113, 3639 749.186 C 3631.186 745.422, 3631.623 737.381, 3639.840 733.746 C 3646.378 730.854, 3656.968 731.662, 3667.326 735.842 C 3677.883 740.103, 3679.118 739.978, 3685.048 734.048 C 3687.771 731.324, 3690 728.671, 3690 728.152 C 3690 726.909, 3681.735 721.657, 3675.772 719.110 C 3669.487 716.425, 3657.350 713.981, 3650.792 714.079 C 3647.881 714.123, 3642.688 714.770, 3639.251 715.516 M 3348 721.845 C 3348 728.227, 3348.236 729.041, 3350.635 730.927 C 3353.118 732.881, 3354.528 733, 3375.185 733 C 3398.198 733, 3400.285 733.342, 3404.295 737.774 C 3408.498 742.418, 3406.933 752.031, 3401.380 755.672 C 3398.904 757.296, 3395.776 757.536, 3373.297 757.826 L 3348 758.152 3348 784.076 L 3348 810 3358 810 L 3368 810 3368 792.500 L 3368 775 3380.250 774.969 C 3403.716 774.910, 3413.178 772.283, 3420.425 763.817 C 3427.538 755.507, 3428.946 741.713, 3423.727 731.481 C 3420.445 725.046, 3416.910 721.772, 3409.500 718.307 L 3403.500 715.500 3375.750 715.168 L 3348 714.835 3348 721.845 M 3438 762.394 L 3438 810 3468.889 810 C 3504.628 810, 3502.440 810.598, 3506.482 799.727 C 3507.867 796.002, 3509 792.740, 3509 792.477 C 3509 792.215, 3497.525 792, 3483.500 792 L 3458 792 3458 756.111 C 3458 713.056, 3458.778 715.732, 3446.098 715.156 L 3438 714.788 3438 762.394 M 3512.008 741.250 C 3512.017 771.944, 3512.935 781.138, 3516.817 789.393 C 3523.864 804.378, 3537.554 811.681, 3556.887 810.768 C 3570.187 810.139, 3576.640 807.535, 3584.588 799.588 C 3588.904 795.271, 3591.371 791.754, 3593.067 787.500 C 3595.376 781.708, 3595.471 780.435, 3595.794 750.815 C 3596.197 713.966, 3596.886 716, 3584 716 L 3576 716 3575.994 744.750 C 3575.989 774.561, 3575.573 778.368, 3571.701 784.118 C 3566.444 791.923, 3553.411 794.873, 3544.500 790.276 C 3539.521 787.708, 3537.658 785.673, 3535.077 779.982 C 3533.181 775.802, 3533.042 773.498, 3533.022 745.750 L 3533 716 3522.500 716 L 3512 716 3512.008 741.250 M 290.500 811.870 C 271.918 817.218, 257.209 831.121, 250.873 849.324 C 248.480 856.197, 248.027 859.093, 248.025 867.500 C 248.024 878.870, 249.508 885.527, 254.146 894.947 C 258.444 903.678, 270.129 915.336, 279 919.744 C 291.862 926.135, 291.448 926.104, 358.668 925.787 L 419.500 925.500 425.500 923.118 C 433.961 919.759, 444.169 912.773, 449.471 906.711 C 469.808 883.463, 468.717 848.786, 446.966 827.034 C 439.283 819.352, 428.023 813.111, 418.201 811.090 C 414.707 810.371, 393.077 810.024, 354.701 810.071 C 302.684 810.135, 295.862 810.326, 290.500 811.870" stroke="none" fill="#fffcfc" fill-rule="evenodd"/><path d="" stroke="none" fill="#fcfcfc" fill-rule="evenodd"/></svg>